<?xml version="1.0" encoding="utf-8"?>
<!-- Generator: Adobe Illustrator 23.0.1, SVG Export Plug-In . SVG Version: 6.00 Build 0)  -->
<svg version="1.1" id="Layer_1" xmlns="http://www.w3.org/2000/svg" xmlns:xlink="http://www.w3.org/1999/xlink" x="0px" y="0px"
	 viewBox="0 0 1000 1000" style="enable-background:new 0 0 1000 1000;" xml:space="preserve">
<style type="text/css">
	.st0{fill:#FD7AB2;}
</style>
<path class="st0" d="M872.7,347.9c0,0-7.4-52.4-30.2-75.5c-28.9-30.3-61.3-30.4-76.2-32.2c-106.4-7.7-266.1-7.7-266.1-7.7h-0.3
	c0,0-159.6,0-266.1,7.7c-14.9,1.8-47.3,1.9-76.2,32.2c-22.8,23.1-30.2,75.5-30.2,75.5s-7.6,61.5-7.6,123.1v57.7
	c0,61.5,7.6,123.1,7.6,123.1s7.4,52.4,30.2,75.5c28.9,30.3,66.9,29.3,83.9,32.5c60.9,5.8,258.6,7.6,258.6,7.6s159.8-0.2,266.2-7.9
	c14.9-1.8,47.3-1.9,76.2-32.2c22.8-23.1,30.2-75.5,30.2-75.5s7.6-61.5,7.6-123.1V471C880.3,409.5,872.7,347.9,872.7,347.9z
	 M421.5,598.6V385l205.5,107.2L421.5,598.6z"/>
</svg>
